<?xml version="1.0" encoding="UTF-8"?><svg id="Laag_1" xmlns="http://www.w3.org/2000/svg" xmlns:xlink="http://www.w3.org/1999/xlink" viewBox="0 0 64 64"><defs><style>.cls-1{fill:#fff;fill-rule:evenodd;}.cls-2{fill:url(#Naamloos_verloop_271);}</style><linearGradient id="Naamloos_verloop_271" x1="0" y1="32" x2="64" y2="32" gradientUnits="userSpaceOnUse"><stop offset="0" stop-color="#e73141"/><stop offset="1" stop-color="#eb5d75"/></linearGradient></defs><rect class="cls-2" y="0" width="64" height="64" rx="9.6" ry="9.6"/><g id="Glyph"><path class="cls-1" d="M44.47,10.24c-.15.01-1.53.26-1.69.29l-19.02,3.84h0c-.5.11-.89.28-1.19.54-.36.3-.56.73-.64,1.24-.02.11-.04.32-.04.64v23.81c0,.56-.04,1.1-.42,1.56s-.84.6-1.39.71c-.41.08-.83.17-1.24.25-1.57.32-2.59.53-3.52.89-.89.34-1.55.78-2.08,1.34-1.05,1.1-1.47,2.58-1.33,3.98.12,1.19.66,2.33,1.58,3.17.62.57,1.4,1,2.31,1.18.95.19,1.96.12,3.43-.17.79-.16,1.52-.41,2.22-.82.69-.41,1.29-.95,1.75-1.62.47-.67.77-1.41.93-2.2.17-.81.21-1.55.21-2.36v-20.65c0-1.11.31-1.4,1.21-1.61,0,0,15.81-3.19,16.55-3.33,1.03-.2,1.51.1,1.51,1.18v14.1c0,.56,0,1.12-.39,1.59-.38.46-.84.6-1.39.71l-1.24.25c-1.57.32-2.59.53-3.52.89-.89.34-1.55.78-2.08,1.34-1.05,1.1-1.51,2.58-1.36,3.98.12,1.19.7,2.33,1.62,3.17.62.57,1.4.99,2.31,1.17.95.19,1.96.12,3.43-.17.79-.16,1.52-.39,2.22-.81.69-.41,1.29-.95,1.75-1.62.47-.67.77-1.41.93-2.2.17-.81.18-1.55.18-2.36V11.92c0-1.1-.57-1.77-1.6-1.68Z"/></g></svg>