<?xml version="1.0" encoding="UTF-8"?><svg id="Laag_1" xmlns="http://www.w3.org/2000/svg" xmlns:xlink="http://www.w3.org/1999/xlink" viewBox="0 0 64 64"><defs><style>.cls-1{fill:url(#Naamloos_verloop_23);}.cls-2{fill:url(#Naamloos_verloop_23-2);}.cls-3{fill:#fff;}</style><linearGradient id="Naamloos_verloop_23" x1="0" y1="32" x2="64" y2="32" gradientUnits="userSpaceOnUse"><stop offset="0" stop-color="#57b25c"/><stop offset="1" stop-color="#008d36"/></linearGradient><linearGradient id="Naamloos_verloop_23-2" x1="17.15" y1="31.3" x2="47.75" y2="31.3" xlink:href="#Naamloos_verloop_23"/></defs><rect class="cls-1" y="0" width="64" height="64" rx="9.6" ry="9.6"/><path class="cls-3" d="M32,9.89c-11.86,0-21.48,9.62-21.48,21.48s9.62,21.48,21.48,21.48,21.48-9.62,21.48-21.48-9.62-21.48-21.48-21.48Z"/><path class="cls-2" d="M45.74,29.21c-.45,0-.73-.11-1.12-.34-6.17-3.68-17.19-4.56-24.33-2.57-.31.09-.7.23-1.12.23-1.14,0-2.02-.89-2.02-2.04s.73-1.84,1.51-2.07c3.05-.89,6.46-1.32,10.18-1.32,6.32,0,12.95,1.32,17.79,4.14.68.39,1.12.93,1.12,1.96,0,1.18-.95,2.02-2.01,2.02h0ZM43.05,35.81c-.45,0-.75-.2-1.07-.36-5.41-3.2-13.49-4.5-20.67-2.55-.42.11-.64.23-1.03.23-.93,0-1.68-.75-1.68-1.68s.45-1.54,1.34-1.79c2.41-.68,4.87-1.18,8.47-1.18,5.62,0,11.05,1.39,15.33,3.94.7.42.98.95.98,1.71,0,.94-.74,1.69-1.68,1.69ZM40.72,41.5c-.36,0-.59-.11-.93-.31-5.4-3.26-11.69-3.4-17.9-2.12-.34.09-.78.23-1.03.23-.84,0-1.37-.67-1.37-1.37,0-.89.53-1.32,1.18-1.46,7.09-1.57,14.34-1.43,20.53,2.27.53.34.84.64.84,1.43s-.61,1.33-1.32,1.33h0Z"/></svg>