<?xml version="1.0" encoding="UTF-8"?><svg id="Laag_1" xmlns="http://www.w3.org/2000/svg" xmlns:xlink="http://www.w3.org/1999/xlink" viewBox="0 0 64 64"><defs><style>.cls-1{fill:#fff;}.cls-2{fill:url(#Naamloos_verloop_286);}.cls-3{fill:#e52521;}</style><linearGradient id="Naamloos_verloop_286" x1="0" y1="32" x2="64" y2="32" gradientUnits="userSpaceOnUse"><stop offset="0" stop-color="#e52521"/><stop offset="1" stop-color="#9e1924"/></linearGradient></defs><rect class="cls-2" width="64" height="64" rx="9.6" ry="9.6"/><path class="cls-1" d="M54.62,20.76c-.55-2.04-2.15-3.64-4.19-4.19-3.67-1-18.46-1-18.46-1,0,0-14.79.03-18.46,1.03-2.04.55-3.64,2.15-4.19,4.19-.97,3.67-.97,11.36-.97,11.36,0,0,0,7.68,1,11.39.55,2.04,2.15,3.64,4.19,4.19,3.67,1,18.46,1,18.46,1,0,0,14.79,0,18.46-1,2.04-.55,3.64-2.15,4.19-4.19,1-3.67,1-11.39,1-11.39,0,0-.03-7.68-1.03-11.39Z"/><path class="cls-3" d="M27.26,39.25l12.27-7.1-12.27-7.1v14.21Z"/></svg>